<svg width="500" height="150" viewBox="0 0 500 150" fill="none" xmlns="http://www.w3.org/2000/svg">
<rect width="500" height="150" fill="white"/>
<path d="M160.191 100H152.991V88.6H142.991V100H135.791V72H142.991V83H152.991V72H160.191V100ZM173.81 94.6C175.223 94.6 176.823 94.3333 178.61 93.8V78.8H185.61V100H179.41L179.01 98C177.757 98.8267 176.463 99.44 175.13 99.84C173.823 100.213 172.717 100.4 171.81 100.4H170.01C168.197 100.4 166.743 99.8533 165.65 98.76C164.557 97.6667 164.01 96.2133 164.01 94.4V78.8H171.01V93.2C171.01 93.6 171.143 93.9333 171.41 94.2C171.677 94.4667 172.01 94.6 172.41 94.6H173.81ZM200.796 84.2C199.383 84.2 197.783 84.4667 195.996 85V100H188.996V78.8H195.196L195.596 80.8C196.849 79.9733 198.129 79.3733 199.436 79C200.769 78.6 201.889 78.4 202.796 78.4H204.596C206.409 78.4 207.863 78.9467 208.956 80.04C210.049 81.1333 210.596 82.5867 210.596 84.4V100H203.596V85.6C203.596 85.2 203.463 84.8667 203.196 84.6C202.929 84.3333 202.596 84.2 202.196 84.2H200.796ZM227.391 98.4C224.805 98.9333 222.538 99.2 220.591 99.2H219.191C217.378 99.2 215.925 98.6533 214.831 97.56C213.738 96.4667 213.191 95.0133 213.191 93.2V85.2C213.191 83.2 213.751 81.64 214.871 80.52C216.018 79.3733 217.591 78.8 219.591 78.8H234.391V101.2C234.391 103.013 233.845 104.467 232.751 105.56C231.658 106.653 230.205 107.2 228.391 107.2C224.205 107.2 219.538 106.933 214.391 106.4V101.2C219.485 101.6 223.351 101.8 225.991 101.8C226.391 101.8 226.725 101.667 226.991 101.4C227.258 101.133 227.391 100.8 227.391 100.4V98.4ZM222.591 93.8C224.271 93.8 225.871 93.6667 227.391 93.4V84.2H221.791C220.725 84.2 220.191 84.7333 220.191 85.8V92.4C220.191 92.8 220.325 93.1333 220.591 93.4C220.858 93.6667 221.191 93.8 221.591 93.8H222.591ZM249.996 84.6C248.316 84.6 246.583 85 244.796 85.8V100H237.796V78.8H243.996L244.396 81.4C246.689 79.4 249.089 78.4 251.596 78.4H253.396V84.6H249.996ZM261.195 107.2C259.781 107.2 258.048 107.067 255.995 106.8V101.6H259.595C260.608 101.6 261.261 101.32 261.555 100.76C261.875 100.2 261.821 99.4133 261.395 98.4L253.195 78.8H260.595L265.595 92.4L269.795 78.8H277.195L269.195 100.8C268.421 102.907 267.421 104.493 266.195 105.56C264.968 106.653 263.301 107.2 261.195 107.2ZM313.999 100H306.799V88.6H296.799V100H289.599V72H296.799V83H306.799V72H313.999V100ZM327.618 94.6C329.031 94.6 330.631 94.3333 332.418 93.8V78.8H339.418V100H333.218L332.818 98C331.565 98.8267 330.271 99.44 328.938 99.84C327.631 100.213 326.525 100.4 325.618 100.4H323.818C322.005 100.4 320.551 99.8533 319.458 98.76C318.365 97.6667 317.818 96.2133 317.818 94.4V78.8H324.818V93.2C324.818 93.6 324.951 93.9333 325.218 94.2C325.485 94.4667 325.818 94.6 326.218 94.6H327.618ZM357.004 85.2C357.004 84.8 356.871 84.4667 356.604 84.2C356.337 83.9333 356.004 83.8 355.604 83.8H354.604C353.484 83.8 352.511 83.8533 351.684 83.96C350.884 84.0667 350.257 84.1467 349.804 84.2V94.6H355.404C356.471 94.6 357.004 94.0667 357.004 93V85.2ZM349.804 79.2C352.391 78.6667 354.657 78.4 356.604 78.4H358.004C359.817 78.4 361.271 78.9467 362.364 80.04C363.457 81.1333 364.004 82.5867 364.004 84.4V93.6C364.004 95.6 363.431 97.1733 362.284 98.32C361.164 99.44 359.604 100 357.604 100H342.804V72H349.804V79.2Z" fill="#FB5C5B"/>
<path d="M141.102 123.32V122.696H144.622V123.32H141.102ZM157.093 127V122.728L153.941 116.456H154.725L156.325 119.752C156.506 120.136 156.687 120.515 156.869 120.888C157.05 121.261 157.242 121.645 157.445 122.04H157.509C157.711 121.645 157.909 121.261 158.101 120.888C158.293 120.515 158.474 120.136 158.645 119.752L160.245 116.456H160.997L157.829 122.728V127H157.093ZM165.853 127.192C165.011 127.192 164.264 126.968 163.613 126.52C162.963 126.061 162.451 125.421 162.077 124.6C161.704 123.779 161.517 122.808 161.517 121.688C161.517 120.579 161.704 119.619 162.077 118.808C162.451 117.997 162.963 117.373 163.613 116.936C164.264 116.488 165.011 116.264 165.853 116.264C166.707 116.264 167.459 116.488 168.109 116.936C168.76 117.373 169.272 117.997 169.645 118.808C170.019 119.619 170.205 120.579 170.205 121.688C170.205 122.808 170.019 123.779 169.645 124.6C169.272 125.421 168.76 126.061 168.109 126.52C167.459 126.968 166.707 127.192 165.853 127.192ZM165.853 126.52C166.568 126.52 167.192 126.323 167.725 125.928C168.259 125.523 168.675 124.957 168.973 124.232C169.272 123.507 169.421 122.659 169.421 121.688C169.421 120.717 169.272 119.88 168.973 119.176C168.675 118.461 168.259 117.912 167.725 117.528C167.192 117.133 166.568 116.936 165.853 116.936C165.139 116.936 164.515 117.133 163.981 117.528C163.448 117.912 163.032 118.461 162.733 119.176C162.435 119.88 162.285 120.717 162.285 121.688C162.285 122.659 162.435 123.507 162.733 124.232C163.032 124.957 163.448 125.523 163.981 125.928C164.515 126.323 165.139 126.52 165.853 126.52ZM175.891 127.192C175.443 127.192 175.005 127.128 174.579 127C174.163 126.861 173.784 126.632 173.443 126.312C173.112 125.992 172.845 125.56 172.643 125.016C172.451 124.461 172.355 123.773 172.355 122.952V116.456H173.091V122.872C173.091 123.8 173.219 124.531 173.475 125.064C173.741 125.597 174.088 125.976 174.515 126.2C174.941 126.413 175.4 126.52 175.891 126.52C176.403 126.52 176.877 126.413 177.315 126.2C177.752 125.976 178.104 125.597 178.371 125.064C178.637 124.531 178.771 123.8 178.771 122.872V116.456H179.459V122.952C179.459 123.773 179.357 124.461 179.155 125.016C178.963 125.56 178.696 125.992 178.355 126.312C178.024 126.632 177.645 126.861 177.219 127C176.792 127.128 176.349 127.192 175.891 127.192ZM182.287 127V116.456H185.311C186.357 116.456 187.194 116.669 187.823 117.096C188.453 117.512 188.767 118.227 188.767 119.24C188.767 120.083 188.522 120.744 188.031 121.224C187.551 121.704 186.895 121.997 186.063 122.104L188.975 127H188.127L185.263 122.152H183.023V127H182.287ZM183.023 121.544H185.119C186.047 121.544 186.762 121.357 187.263 120.984C187.765 120.6 188.015 120.019 188.015 119.24C188.015 118.451 187.765 117.896 187.263 117.576C186.762 117.245 186.047 117.08 185.119 117.08H183.023V121.544ZM197.458 127.192C196.594 127.192 195.826 126.968 195.154 126.52C194.492 126.072 193.975 125.437 193.602 124.616C193.228 123.795 193.042 122.824 193.042 121.704C193.042 120.584 193.228 119.619 193.602 118.808C193.986 117.997 194.514 117.373 195.186 116.936C195.858 116.488 196.642 116.264 197.538 116.264C198.156 116.264 198.7 116.392 199.17 116.648C199.639 116.904 200.012 117.197 200.29 117.528L199.858 118.024C199.57 117.693 199.234 117.432 198.85 117.24C198.466 117.037 198.034 116.936 197.554 116.936C196.786 116.936 196.119 117.133 195.554 117.528C194.999 117.912 194.567 118.461 194.258 119.176C193.959 119.88 193.81 120.723 193.81 121.704C193.81 122.675 193.959 123.523 194.258 124.248C194.556 124.973 194.978 125.533 195.522 125.928C196.076 126.323 196.732 126.52 197.49 126.52C198.034 126.52 198.519 126.413 198.946 126.2C199.372 125.976 199.778 125.651 200.162 125.224L200.594 125.688C200.188 126.147 199.735 126.515 199.234 126.792C198.732 127.059 198.14 127.192 197.458 127.192ZM205.837 127.192C205.389 127.192 204.952 127.128 204.525 127C204.109 126.861 203.73 126.632 203.389 126.312C203.058 125.992 202.792 125.56 202.589 125.016C202.397 124.461 202.301 123.773 202.301 122.952V116.456H203.037V122.872C203.037 123.8 203.165 124.531 203.421 125.064C203.688 125.597 204.034 125.976 204.461 126.2C204.888 126.413 205.346 126.52 205.837 126.52C206.349 126.52 206.824 126.413 207.261 126.2C207.698 125.976 208.05 125.597 208.317 125.064C208.584 124.531 208.717 123.8 208.717 122.872V116.456H209.405V122.952C209.405 123.773 209.304 124.461 209.101 125.016C208.909 125.56 208.642 125.992 208.301 126.312C207.97 126.632 207.592 126.861 207.165 127C206.738 127.128 206.296 127.192 205.837 127.192ZM212.234 127V116.456H212.97V126.36H217.834V127H212.234ZM219.462 127V116.456H220.198V127H219.462ZM223.066 127V116.456H223.834L228.282 123.896L229.466 125.992H229.53C229.519 125.48 229.498 124.968 229.466 124.456C229.445 123.944 229.434 123.432 229.434 122.92V116.456H230.138V127H229.37L224.922 119.56L223.738 117.464H223.674C223.695 117.965 223.717 118.461 223.738 118.952C223.759 119.443 223.77 119.944 223.77 120.456V127H223.066ZM234.454 120.792L233.782 122.76H237.526L236.854 120.792C236.641 120.163 236.438 119.56 236.246 118.984C236.054 118.408 235.867 117.795 235.686 117.144H235.622C235.441 117.795 235.254 118.408 235.062 118.984C234.87 119.56 234.667 120.163 234.454 120.792ZM231.574 127L235.286 116.456H236.022L239.734 127H238.966L237.734 123.384H233.558L232.31 127H231.574ZM241.18 127V116.456H244.204C245.249 116.456 246.086 116.669 246.716 117.096C247.345 117.512 247.66 118.227 247.66 119.24C247.66 120.083 247.414 120.744 246.924 121.224C246.444 121.704 245.788 121.997 244.956 122.104L247.868 127H247.02L244.156 122.152H241.916V127H241.18ZM241.916 121.544H244.012C244.94 121.544 245.654 121.357 246.156 120.984C246.657 120.6 246.908 120.019 246.908 119.24C246.908 118.451 246.657 117.896 246.156 117.576C245.654 117.245 244.94 117.08 244.012 117.08H241.916V121.544ZM251.4 127V122.728L248.248 116.456H249.032L250.632 119.752C250.814 120.136 250.995 120.515 251.176 120.888C251.358 121.261 251.55 121.645 251.752 122.04H251.816C252.019 121.645 252.216 121.261 252.408 120.888C252.6 120.515 252.782 120.136 252.952 119.752L254.552 116.456H255.304L252.136 122.728V127H251.4ZM263.376 127.192C262.512 127.192 261.744 126.968 261.072 126.52C260.41 126.072 259.893 125.437 259.52 124.616C259.146 123.795 258.96 122.824 258.96 121.704C258.96 120.584 259.146 119.619 259.52 118.808C259.904 117.997 260.432 117.373 261.104 116.936C261.776 116.488 262.56 116.264 263.456 116.264C264.074 116.264 264.618 116.392 265.088 116.648C265.557 116.904 265.93 117.197 266.208 117.528L265.776 118.024C265.488 117.693 265.152 117.432 264.768 117.24C264.384 117.037 263.952 116.936 263.472 116.936C262.704 116.936 262.037 117.133 261.472 117.528C260.917 117.912 260.485 118.461 260.176 119.176C259.877 119.88 259.728 120.723 259.728 121.704C259.728 122.675 259.877 123.523 260.176 124.248C260.474 124.973 260.896 125.533 261.44 125.928C261.994 126.323 262.65 126.52 263.408 126.52C263.952 126.52 264.437 126.413 264.864 126.2C265.29 125.976 265.696 125.651 266.08 125.224L266.512 125.688C266.106 126.147 265.653 126.515 265.152 126.792C264.65 127.059 264.058 127.192 263.376 127.192ZM271.696 127.192C270.854 127.192 270.107 126.968 269.456 126.52C268.806 126.061 268.294 125.421 267.92 124.6C267.547 123.779 267.36 122.808 267.36 121.688C267.36 120.579 267.547 119.619 267.92 118.808C268.294 117.997 268.806 117.373 269.456 116.936C270.107 116.488 270.854 116.264 271.696 116.264C272.55 116.264 273.302 116.488 273.952 116.936C274.603 117.373 275.115 117.997 275.488 118.808C275.862 119.619 276.048 120.579 276.048 121.688C276.048 122.808 275.862 123.779 275.488 124.6C275.115 125.421 274.603 126.061 273.952 126.52C273.302 126.968 272.55 127.192 271.696 127.192ZM271.696 126.52C272.411 126.52 273.035 126.323 273.568 125.928C274.102 125.523 274.518 124.957 274.816 124.232C275.115 123.507 275.264 122.659 275.264 121.688C275.264 120.717 275.115 119.88 274.816 119.176C274.518 118.461 274.102 117.912 273.568 117.528C273.035 117.133 272.411 116.936 271.696 116.936C270.982 116.936 270.358 117.133 269.824 117.528C269.291 117.912 268.875 118.461 268.576 119.176C268.278 119.88 268.128 120.717 268.128 121.688C268.128 122.659 268.278 123.507 268.576 124.232C268.875 124.957 269.291 125.523 269.824 125.928C270.358 126.323 270.982 126.52 271.696 126.52ZM278.23 127V116.456H278.998L283.446 123.896L284.63 125.992H284.694C284.683 125.48 284.662 124.968 284.63 124.456C284.608 123.944 284.598 123.432 284.598 122.92V116.456H285.302V127H284.534L280.086 119.56L278.902 117.464H278.838C278.859 117.965 278.88 118.461 278.902 118.952C278.923 119.443 278.934 119.944 278.934 120.456V127H278.23ZM288.162 127V116.456H288.93L293.378 123.896L294.562 125.992H294.626C294.615 125.48 294.594 124.968 294.562 124.456C294.54 123.944 294.53 123.432 294.53 122.92V116.456H295.234V127H294.466L290.018 119.56L288.834 117.464H288.77C288.791 117.965 288.812 118.461 288.834 118.952C288.855 119.443 288.866 119.944 288.866 120.456V127H288.162ZM298.094 127V116.456H303.87V117.096H298.83V121.08H303.054V121.72H298.83V126.36H304.03V127H298.094ZM309.832 127.192C308.968 127.192 308.2 126.968 307.528 126.52C306.867 126.072 306.349 125.437 305.976 124.616C305.603 123.795 305.416 122.824 305.416 121.704C305.416 120.584 305.603 119.619 305.976 118.808C306.36 117.997 306.888 117.373 307.56 116.936C308.232 116.488 309.016 116.264 309.912 116.264C310.531 116.264 311.075 116.392 311.544 116.648C312.013 116.904 312.387 117.197 312.664 117.528L312.232 118.024C311.944 117.693 311.608 117.432 311.224 117.24C310.84 117.037 310.408 116.936 309.928 116.936C309.16 116.936 308.493 117.133 307.928 117.528C307.373 117.912 306.941 118.461 306.632 119.176C306.333 119.88 306.184 120.723 306.184 121.704C306.184 122.675 306.333 123.523 306.632 124.248C306.931 124.973 307.352 125.533 307.896 125.928C308.451 126.323 309.107 126.52 309.864 126.52C310.408 126.52 310.893 126.413 311.32 126.2C311.747 125.976 312.152 125.651 312.536 125.224L312.968 125.688C312.563 126.147 312.109 126.515 311.608 126.792C311.107 127.059 310.515 127.192 309.832 127.192ZM316.807 127V117.096H313.447V116.456H320.903V117.096H317.543V127H316.807ZM322.686 127V116.456H323.422V127H322.686ZM329.954 127.192C329.111 127.192 328.364 126.968 327.714 126.52C327.063 126.061 326.551 125.421 326.178 124.6C325.804 123.779 325.618 122.808 325.618 121.688C325.618 120.579 325.804 119.619 326.178 118.808C326.551 117.997 327.063 117.373 327.714 116.936C328.364 116.488 329.111 116.264 329.954 116.264C330.807 116.264 331.559 116.488 332.21 116.936C332.86 117.373 333.372 117.997 333.746 118.808C334.119 119.619 334.306 120.579 334.306 121.688C334.306 122.808 334.119 123.779 333.746 124.6C333.372 125.421 332.86 126.061 332.21 126.52C331.559 126.968 330.807 127.192 329.954 127.192ZM329.954 126.52C330.668 126.52 331.292 126.323 331.826 125.928C332.359 125.523 332.775 124.957 333.074 124.232C333.372 123.507 333.522 122.659 333.522 121.688C333.522 120.717 333.372 119.88 333.074 119.176C332.775 118.461 332.359 117.912 331.826 117.528C331.292 117.133 330.668 116.936 329.954 116.936C329.239 116.936 328.615 117.133 328.082 117.528C327.548 117.912 327.132 118.461 326.834 119.176C326.535 119.88 326.386 120.717 326.386 121.688C326.386 122.659 326.535 123.507 326.834 124.232C327.132 124.957 327.548 125.523 328.082 125.928C328.615 126.323 329.239 126.52 329.954 126.52ZM336.487 127V116.456H337.255L341.703 123.896L342.887 125.992H342.951C342.941 125.48 342.919 124.968 342.887 124.456C342.866 123.944 342.855 123.432 342.855 122.92V116.456H343.559V127H342.791L338.343 119.56L337.159 117.464H337.095C337.117 117.965 337.138 118.461 337.159 118.952C337.181 119.443 337.191 119.944 337.191 120.456V127H336.487ZM354.397 123.32V122.696H357.917V123.32H354.397Z" fill="#4F374E"/>
<path d="M265.125 19C266.074 19 266.859 19.7054 266.983 20.6206L267 20.875V60.875C267 61.9105 266.161 62.75 265.125 62.75C264.176 62.75 263.391 62.0446 263.267 61.1294L263.25 60.875V48.375H257.625C256.676 48.375 255.891 47.6696 255.767 46.7544L255.75 46.5V28.375C255.75 23.1973 259.947 19 265.125 19ZM250.125 19C251.074 19 251.859 19.7054 251.983 20.6206L252 20.875V30.875C252 35.7565 248.502 39.821 243.877 40.6992L243.875 60.875C243.875 61.9105 243.036 62.75 242 62.75C241.051 62.75 240.266 62.0446 240.142 61.1294L240.125 60.875L240.126 40.6997C235.664 39.8538 232.251 36.0436 232.013 31.3949L232 30.875V20.875C232 19.8395 232.839 19 233.875 19C234.824 19 235.609 19.7054 235.733 20.6206L235.75 20.875V30.875C235.75 33.6739 237.59 36.0431 240.126 36.8392L240.125 20.875C240.125 19.8395 240.964 19 242 19C242.949 19 243.734 19.7054 243.858 20.6206L243.875 20.875L243.876 36.8384C246.271 36.0858 248.044 33.9313 248.233 31.3372L248.25 30.875V20.875C248.25 19.8395 249.089 19 250.125 19ZM263.25 44.625V23.0701C261.194 23.7968 259.686 25.6853 259.516 27.9468L259.5 28.375V44.625H263.25Z" fill="#4F374E"/>
</svg>
